<svg id="ic_account_circle_1" data-name="ic_account_circle 1" xmlns="http://www.w3.org/2000/svg" xmlns:xlink="http://www.w3.org/1999/xlink" width="20" height="20" viewBox="0 0 20 20">
  <defs>
    <clipPath id="clip-path">
      <path id="Mask" d="M10,20A10,10,0,1,1,20,10,10.011,10.011,0,0,1,10,20Zm0-9.1c-2.02,0-5.97,1.087-6,3.08a7.2,7.2,0,0,0,12,0c-.017-1.114-1.241-1.858-2.265-2.286A10.7,10.7,0,0,0,10,10.9ZM10,3a3,3,0,1,0,3,3A3,3,0,0,0,10,3Z" fill="#d1d1d1"/>
    </clipPath>
  </defs>
  <path id="Mask-2" data-name="Mask" d="M10,20A10,10,0,1,1,20,10,10.011,10.011,0,0,1,10,20Zm0-9.1c-2.02,0-5.97,1.087-6,3.08a7.2,7.2,0,0,0,12,0c-.017-1.114-1.241-1.858-2.265-2.286A10.7,10.7,0,0,0,10,10.9ZM10,3a3,3,0,1,0,3,3A3,3,0,0,0,10,3Z" fill="#d1d1d1"/>
</svg>
